<?xml version="1.0" encoding="UTF-8" standalone="no"?>
<!-- Created with Inkscape (http://www.inkscape.org/) -->

<svg
   xmlns:dc="http://purl.org/dc/elements/1.1/"
   xmlns:cc="http://creativecommons.org/ns#"
   xmlns:rdf="http://www.w3.org/1999/02/22-rdf-syntax-ns#"
   xmlns:svg="http://www.w3.org/2000/svg"
   xmlns="http://www.w3.org/2000/svg"
   xmlns:sodipodi="http://sodipodi.sourceforge.net/DTD/sodipodi-0.dtd"
   xmlns:inkscape="http://www.inkscape.org/namespaces/inkscape"
   width="64"
   height="64"
   id="svg2"
   version="1.1"
   inkscape:version="0.48.4 r9939"
   sodipodi:docname="boxselect.svg">
  <defs
     id="defs4">
    <marker
       inkscape:stockid="Arrow1Mstart"
       orient="auto"
       refY="0.0"
       refX="0.0"
       id="Arrow1Mstart"
       style="overflow:visible">
      <path
         id="path3959"
         d="M 0.0,0.0 L 5.0,-5.0 L -12.5,0.0 L 5.0,5.0 L 0.0,0.0 z "
         style="fill-rule:evenodd;stroke:#000000;stroke-width:1.0pt"
         transform="scale(0.4) translate(10,0)" />
    </marker>
    <marker
       inkscape:stockid="Arrow1Lstart"
       orient="auto"
       refY="0.0"
       refX="0.0"
       id="Arrow1Lstart"
       style="overflow:visible">
      <path
         id="path3953"
         d="M 0.0,0.0 L 5.0,-5.0 L -12.5,0.0 L 5.0,5.0 L 0.0,0.0 z "
         style="fill-rule:evenodd;stroke:#000000;stroke-width:1.0pt"
         transform="scale(0.8) translate(12.5,0)" />
    </marker>
  </defs>
  <sodipodi:namedview
     id="base"
     pagecolor="#555566"
     bordercolor="#666666"
     borderopacity="1.0"
     inkscape:pageopacity="1"
     inkscape:pageshadow="2"
     inkscape:zoom="11.313709"
     inkscape:cx="42.073502"
     inkscape:cy="31.808086"
     inkscape:document-units="px"
     inkscape:current-layer="layer3"
     showgrid="false"
     inkscape:window-width="1920"
     inkscape:window-height="1030"
     inkscape:window-x="0"
     inkscape:window-y="0"
     inkscape:window-maximized="1" />
  <metadata
     id="metadata7">
    <rdf:RDF>
      <cc:Work
         rdf:about="">
        <dc:format>image/svg+xml</dc:format>
        <dc:type
           rdf:resource="http://purl.org/dc/dcmitype/StillImage" />
        <dc:title />
      </cc:Work>
    </rdf:RDF>
  </metadata>
  <g
     inkscape:groupmode="layer"
     id="layer3"
     inkscape:label="Layer#1"
     style="display:inline">
    <path
       style="font-size:medium;font-style:normal;font-variant:normal;font-weight:normal;font-stretch:normal;text-indent:0;text-align:start;text-decoration:none;line-height:normal;letter-spacing:normal;word-spacing:normal;text-transform:none;direction:ltr;block-progression:tb;writing-mode:lr-tb;text-anchor:start;baseline-shift:baseline;color:#000000;fill:#ffffff;fill-opacity:1;stroke:none;stroke-width:2;marker:none;visibility:visible;display:inline;overflow:visible;enable-background:accumulate;font-family:Sans;-inkscape-font-specification:Sans"
       d="m 59.786743,4.6628242 0,6.6397698 2.213257,0 0,-6.6397698 z m 0,8.8530268 0,6.639769 2.213257,0 0,-6.639769 z m 0,8.853026 0,6.639769 2.213257,0 0,-6.639769 z m 0,8.853025 0,6.63977 2.213257,0 0,-6.63977 z m 0,8.853026 0,6.63977 2.213257,0 0,-6.63977 z m 0,8.853027 0,6.639768 2.213257,0 0,-6.639768 z m 0,8.853025 0,2.005763 -2.420749,0 0,2.213257 3.527378,0 L 62,62 62,60.893372 62,57.78098 z M 52.628242,2 l 0,2.2132565 6.639769,0 0,-2.2132565 z m -4.115274,57.786743 0,2.213257 6.639769,0 0,-2.213257 z M 43.775216,2 l 0,2.2132565 6.639769,0 0,-2.2132565 z m -4.115274,57.786743 0,2.213257 6.63977,0 0,-2.213257 z M 34.922189,2 l 0,2.2132565 6.63977,0 0,-2.2132565 z m -4.115273,57.786743 0,2.213257 6.63977,0 0,-2.213257 z M 26.069164,2 l 0,2.2132565 6.639769,0 0,-2.2132565 z m -4.115274,57.786743 0,2.213257 6.639769,0 0,-2.213257 z M 17.216138,2 l 0,2.2132565 6.639769,0 0,-2.2132565 z m -4.115274,57.786743 0,2.213257 6.639769,0 0,-2.213257 z M 8.3631118,2 l 0,2.2132565 6.6397692,0 0,-2.2132565 z m -4.1152737,57.786743 0,2.213257 6.6397699,0 0,-2.213257 z M 3.1066283,2 2,2 2,3.1066283 2,6.70317 l 2.2132565,0 0,-2.4899135 1.9365989,0 0,-2.2132565 z M 2,8.916426 l 0,6.63977 2.2132565,0 0,-6.63977 z m 0,8.853026 0,6.63977 2.2132565,0 0,-6.63977 z m 0,8.853025 0,6.63977 2.2132565,0 0,-6.63977 z m 0,8.853027 0,6.639769 2.2132565,0 0,-6.639769 z m 0,8.853026 0,6.63977 2.2132565,0 0,-6.63977 z m 0,8.853025 0,6.63977 2.2132565,0 0,-6.63977 z"
       id="rect3947"
       inkscape:connector-curvature="0" />
  </g>
</svg>
