<?xml version="1.0" encoding="UTF-8" standalone="no"?>
<!-- Created with Inkscape (http://www.inkscape.org/) -->

<svg
   xmlns:dc="http://purl.org/dc/elements/1.1/"
   xmlns:cc="http://creativecommons.org/ns#"
   xmlns:rdf="http://www.w3.org/1999/02/22-rdf-syntax-ns#"
   xmlns:svg="http://www.w3.org/2000/svg"
   xmlns="http://www.w3.org/2000/svg"
   xmlns:sodipodi="http://sodipodi.sourceforge.net/DTD/sodipodi-0.dtd"
   xmlns:inkscape="http://www.inkscape.org/namespaces/inkscape"
   width="64"
   height="64"
   id="svg2"
   version="1.1"
   inkscape:version="0.48.4 r9939"
   sodipodi:docname="brush.svg">
  <defs
     id="defs4" />
  <sodipodi:namedview
     id="base"
     pagecolor="#555566"
     bordercolor="#666666"
     borderopacity="1.0"
     inkscape:pageopacity="1"
     inkscape:pageshadow="2"
     inkscape:zoom="5.6"
     inkscape:cx="49.088377"
     inkscape:cy="18.36851"
     inkscape:document-units="px"
     inkscape:current-layer="layer2"
     showgrid="false"
     inkscape:window-width="1920"
     inkscape:window-height="1030"
     inkscape:window-x="0"
     inkscape:window-y="0"
     inkscape:window-maximized="1" />
  <metadata
     id="metadata7">
    <rdf:RDF>
      <cc:Work
         rdf:about="">
        <dc:format>image/svg+xml</dc:format>
        <dc:type
           rdf:resource="http://purl.org/dc/dcmitype/StillImage" />
        <dc:title />
      </cc:Work>
    </rdf:RDF>
  </metadata>
  <g
     inkscape:groupmode="layer"
     id="layer2"
     inkscape:label="Layer">
    <path
       style="fill:#ffffff;fill-opacity:1;stroke:none"
       d="m 17.843061,54.410253 c 1.054427,-0.383698 2.836843,-2.650943 4.300357,-3.907887 1.54887,-1.580175 3.195918,-3.127164 4.58366,-4.82629 0.593892,-1.127386 -0.975584,-2.441123 -1.493744,-3.167877 1.143543,-1.12652 1.594415,-1.187537 1.095528,-1.651138 -0.905982,-2.024973 -1.351337,-1.930587 -3.078403,-2.960227 -0.608247,-0.474122 -1.34017,0.53004 -1.868176,1.017976 -2.286088,-1.650035 -2.749437,-1.352607 -4.42211,0.493349 -2.345967,2.628983 -5.080516,4.976945 -7.2291407,7.737096 0.8882307,5.163532 3.2849367,6.381616 8.1120287,7.264998 z"
       id="path3023"
       inkscape:connector-curvature="0"
       sodipodi:nodetypes="cccccccccc" />
    <path
       style="fill:#cbcbcb;fill-opacity:1;stroke:none"
       d="m 17.874565,54.406617 c -4.738422,-3.026699 -5.923041,-4.635101 -8.1120297,-7.264998 -0.827323,1.06459 -1.423337,1.421447 -2.79863,2.582999 -2.0628008,1.753808 -4.474726,3.158868 -6.2698411,5.190369 -0.7575275,0.882219 -0.9572441,1.908579 -0.2859083,3.160519 1.2314205,2.131994 2.942307,4.085972 5.2946952,5.162469 1.4019482,0.614199 2.9966792,0.933127 4.5010459,0.668145 2.080055,-2.48483 3.980138,-5.103926 5.965298,-7.64469 0.529218,-0.619431 1.061164,-1.261109 1.70537,-1.854813 z"
       id="path3023-4"
       inkscape:connector-curvature="0"
       sodipodi:nodetypes="ccccccccc" />
    <path
       style="fill:#dcdcdc;fill-opacity:1;stroke:none"
       d="M 26.342262,40.849474 C 37.556778,29.418286 48.851109,18.061935 60.014828,6.5830368 61.679223,4.743163 63.566144,2.7856631 64,0.25904328 63.308994,-0.42375282 62.108654,0.42603538 61.336662,0.71973628 56.694491,3.7551088 53.181858,8.1227977 49.198271,11.910342 40.599828,20.61544 31.750918,29.07684 23.26386,37.889247 c 0.654993,1.177396 1.921376,2.237057 3.078402,2.960227 z"
       id="path3023-1"
       inkscape:connector-curvature="0"
       sodipodi:nodetypes="ccccccc" />
  </g>
</svg>
