<?xml version="1.0" encoding="UTF-8" standalone="no"?>
<!-- Created with Inkscape (http://www.inkscape.org/) -->

<svg
   xmlns:dc="http://purl.org/dc/elements/1.1/"
   xmlns:cc="http://creativecommons.org/ns#"
   xmlns:rdf="http://www.w3.org/1999/02/22-rdf-syntax-ns#"
   xmlns:svg="http://www.w3.org/2000/svg"
   xmlns="http://www.w3.org/2000/svg"
   xmlns:sodipodi="http://sodipodi.sourceforge.net/DTD/sodipodi-0.dtd"
   xmlns:inkscape="http://www.inkscape.org/namespaces/inkscape"
   width="64"
   height="64"
   id="svg2"
   version="1.1"
   inkscape:version="0.48.4 r9939"
   sodipodi:docname="pen.svg">
  <defs
     id="defs4">
    <marker
       inkscape:stockid="Arrow1Mstart"
       orient="auto"
       refY="0.0"
       refX="0.0"
       id="Arrow1Mstart"
       style="overflow:visible">
      <path
         id="path3959"
         d="M 0.0,0.0 L 5.0,-5.0 L -12.5,0.0 L 5.0,5.0 L 0.0,0.0 z "
         style="fill-rule:evenodd;stroke:#000000;stroke-width:1.0pt"
         transform="scale(0.4) translate(10,0)" />
    </marker>
    <marker
       inkscape:stockid="Arrow1Lstart"
       orient="auto"
       refY="0.0"
       refX="0.0"
       id="Arrow1Lstart"
       style="overflow:visible">
      <path
         id="path3953"
         d="M 0.0,0.0 L 5.0,-5.0 L -12.5,0.0 L 5.0,5.0 L 0.0,0.0 z "
         style="fill-rule:evenodd;stroke:#000000;stroke-width:1.0pt"
         transform="scale(0.8) translate(12.5,0)" />
    </marker>
  </defs>
  <sodipodi:namedview
     id="base"
     pagecolor="#555566"
     bordercolor="#666666"
     borderopacity="1.0"
     inkscape:pageopacity="1"
     inkscape:pageshadow="2"
     inkscape:zoom="8"
     inkscape:cx="41.330766"
     inkscape:cy="36.99309"
     inkscape:document-units="px"
     inkscape:current-layer="layer3"
     showgrid="false"
     inkscape:window-width="1920"
     inkscape:window-height="1029"
     inkscape:window-x="0"
     inkscape:window-y="0"
     inkscape:window-maximized="1"
     showguides="true"
     inkscape:guide-bbox="true" />
  <metadata
     id="metadata7">
    <rdf:RDF>
      <cc:Work
         rdf:about="">
        <dc:format>image/svg+xml</dc:format>
        <dc:type
           rdf:resource="http://purl.org/dc/dcmitype/StillImage" />
        <dc:title></dc:title>
      </cc:Work>
    </rdf:RDF>
  </metadata>
  <g
     inkscape:groupmode="layer"
     id="layer3"
     inkscape:label="Layer#1"
     style="display:inline">
    <path
       style="fill:#cccccc;fill-opacity:1;stroke:none;display:inline"
       d="M 53.53125 11.03125 C 51.971969 9.5214551 50.488714 7.86408 49.90625 6.84375 C 49.336239 6.953355 48.731803 6.8869934 48.15625 6.53125 C 47.242831 5.7239577 46.050337 6.2693203 45 6.4375 L 7.75 32.40625 C 6.8431036 32.96001 5.9917693 33.663114 5.1875 34.34375 C 9.8474748 37.450482 13.93605 41.30137 17.875 45.28125 C 18.496074 45.613651 19.188952 45.868655 19.71875 45.875 C 20.124198 45.874782 20.425837 45.76728 20.78125 45.5625 C 21.136663 45.35772 21.535663 45.073922 22.09375 44.6875 L 51.84375 13.65625 C 52.095111 13.301057 52.479164 13.005579 52.8125 12.6875 C 53.145836 12.369421 53.437309 12.034356 53.5 11.59375 C 53.510662 11.403632 53.522937 11.223794 53.53125 11.03125 z "
       id="path4048" />
    <path
       style="fill:#888888;fill-opacity:1;stroke:none;display:inline"
       d="M 53.53125 11.03125 C 53.522937 11.223794 53.510662 11.403632 53.5 11.59375 C 53.437309 12.034356 53.145836 12.369421 52.8125 12.6875 C 52.479164 13.005579 52.095111 13.301057 51.84375 13.65625 L 22.09375 44.6875 C 21.535663 45.073922 21.136663 45.35772 20.78125 45.5625 C 20.425837 45.76728 20.124198 45.874782 19.71875 45.875 C 19.188952 45.868655 18.496074 45.613651 17.875 45.28125 C 18.897367 46.314241 19.970463 47.293901 20.96875 48.34375 C 23.868128 51.668678 27.172278 54.807741 29.03125 58.875 C 33.825217 52.215026 38.457281 45.462595 43.1875 38.75 C 47.137168 33.019498 51.238515 27.479252 55.09375 21.6875 C 55.760527 20.311999 56.898911 18.998198 57.21875 17.5 C 57.648959 16.192109 57.054807 14.946887 56.71875 13.6875 C 56.006783 13.311906 54.731663 12.193566 53.53125 11.03125 z "
       id="path3068-1" />
    <path
       style="fill:#66666f;fill-opacity:0.94117647;stroke:none"
       d="M 13.338718,40.691069 C 10.784295,38.332408 8.0874449,36.282434 5.1929036,34.35269 3.3911671,35.877467 1.7549636,37.575062 -5.3141207e-5,39.157589 5.9744451,43.091717 11.075282,48.203359 15.986107,53.367827 c 2.930364,3.360483 6.301182,6.500295 8.145817,10.63212 l 4.887487,-5.111595 c -1.858963,-4.06727 -5.144624,-7.20495 -8.043993,-10.529888 -2.455409,-2.582237 -5.01132,-5.243216 -7.6367,-7.667395 z"
       id="path3068"
       inkscape:connector-curvature="0" />
    <path
       style="fill:#cccccc;fill-opacity:1;stroke:none;display:inline"
       d="M 63.40625 1.0625 C 60.460766 4.0533812 57.507957 7.0403404 54.5625 10.03125 C 54.265044 9.9478204 54.060429 9.9354444 53.90625 10 C 53.752071 10.064556 53.652572 10.180703 53.59375 10.34375 C 53.526045 10.531421 53.5409 10.814865 53.53125 11.0625 C 54.719876 12.206768 55.976523 13.312427 56.6875 13.6875 C 58.701294 10.697683 60.704955 7.7398192 62.71875 4.75 C 63.379789 3.521591 63.733166 2.8979607 63.71875 1.875 C 63.785272 1.5697592 63.555404 1.3312076 63.40625 1.0625 z "
       id="path4058" />
    <path
       style="fill:#ffffff;fill-opacity:1;stroke:none;display:inline"
       d="M 61.78125 0 C 60.73526 0.19562872 59.489375 0.77752609 58.53125 1.375 C 55.945597 3.1172974 52.585242 5.3274652 49.90625 6.90625 C 50.489339 7.9276714 51.983475 9.5724855 53.53125 11.0625 C 53.5409 10.814865 53.526045 10.531421 53.59375 10.34375 C 53.652572 10.180703 53.752071 10.064556 53.90625 10 C 54.060429 9.9354444 54.265044 9.9478204 54.5625 10.03125 C 57.507957 7.0403404 60.460766 4.0533812 63.40625 1.0625 C 63.314756 0.89766981 63.368702 0.70168205 63.21875 0.5625 C 62.824247 0.19651636 62.400281 0.03353145 61.78125 0 z "
       id="path3068-1-4" />
    <path
       style="fill:none;stroke:#666666;stroke-width:0.92344397000000000;stroke-linecap:butt;stroke-linejoin:miter;stroke-miterlimit:4;stroke-opacity:1;stroke-dasharray:none;display:inline"
       d="m 63.537301,0.92285099 c -2.986824,3.03285481 -5.97359,6.06576881 -8.960385,9.09865401 -1.189823,-0.3337183 -1.041757,0.714419 -1.089211,1.560617 -0.125381,0.881211 -1.144673,1.357729 -1.647396,2.068115 -9.914933,10.342641 -19.829873,20.68527 -29.744811,31.027906 -1.116175,0.772844 -1.574293,1.205322 -2.385189,1.205758 -1.151469,-0.01379 -2.950992,-1.171359 -3.518686,-1.848387"
       id="path3851"
       inkscape:connector-curvature="0"
       sodipodi:nodetypes="ccccccc" />
  </g>
</svg>
