<?xml version="1.0" encoding="UTF-8" standalone="no"?>
<!-- Created with Inkscape (http://www.inkscape.org/) -->

<svg
   xmlns:dc="http://purl.org/dc/elements/1.1/"
   xmlns:cc="http://creativecommons.org/ns#"
   xmlns:rdf="http://www.w3.org/1999/02/22-rdf-syntax-ns#"
   xmlns:svg="http://www.w3.org/2000/svg"
   xmlns="http://www.w3.org/2000/svg"
   xmlns:sodipodi="http://sodipodi.sourceforge.net/DTD/sodipodi-0.dtd"
   xmlns:inkscape="http://www.inkscape.org/namespaces/inkscape"
   width="64"
   height="64"
   id="svg3052"
   version="1.1"
   inkscape:version="0.48.4 r9939"
   sodipodi:docname="New document 2">
  <defs
     id="defs3054" />
  <sodipodi:namedview
     id="base"
     pagecolor="#ffffff"
     bordercolor="#666666"
     borderopacity="1.0"
     inkscape:pageopacity="0.0"
     inkscape:pageshadow="2"
     inkscape:zoom="3.959798"
     inkscape:cx="78.119721"
     inkscape:cy="26.114063"
     inkscape:document-units="px"
     inkscape:current-layer="layer1"
     showgrid="false"
     inkscape:window-width="1920"
     inkscape:window-height="1030"
     inkscape:window-x="0"
     inkscape:window-y="0"
     inkscape:window-maximized="1" />
  <metadata
     id="metadata3057">
    <rdf:RDF>
      <cc:Work
         rdf:about="">
        <dc:format>image/svg+xml</dc:format>
        <dc:type
           rdf:resource="http://purl.org/dc/dcmitype/StillImage" />
        <dc:title></dc:title>
      </cc:Work>
    </rdf:RDF>
  </metadata>
  <g
     inkscape:label="Layer 1"
     inkscape:groupmode="layer"
     id="layer1"
     transform="translate(0,-988.36215)">
    <polygon
       style="fill:#00ffff;stroke:#000000;stroke-opacity:1;stroke-width:0.59628238;stroke-miterlimit:4;stroke-dasharray:none"
       points="392.047,946.681 378.547,941.181 373.047,933.181 374.547,923.681 379.547,919.181 392.047,912.681 403.047,910.181 414.547,908.681 423.047,914.681 429.047,921.181 429.547,928.181 428.547,934.681 424.547,940.681 417.547,945.181 405.047,948.181 "
       id="polygon327"
       transform="matrix(0.94298763,0,0,0.94298763,-346.57269,144.4424)" />
    <path
       style="fill:#ffe000;stroke:#000000;stroke-width:0.94298762;stroke-opacity:1;stroke-miterlimit:4;stroke-dasharray:none"
       inkscape:connector-curvature="0"
       d="m 20.832273,1022.2045 c 0.981649,-1.5634 2.337667,-1.6851 3.790811,-0.9835 0.974107,0.4695 2.104749,2.5733 1.318297,3.654 -2.105692,2.8968 -7.083725,0.4733 -5.109108,-2.6705 z"
       id="path333" />
    <path
       style="fill:#ffe000;stroke:#000000;stroke-width:0.94298762;stroke-opacity:1;stroke-miterlimit:4;stroke-dasharray:none"
       inkscape:connector-curvature="0"
       d="m 42.907614,1020.3864 c -3.292913,-0.034 -3.64842,-5.2487 -0.254607,-5.5655 3.686138,-0.3413 3.790811,6.0567 0.254607,5.5655 z"
       id="path335" />
    <path
       style="fill:#ffe000;stroke:#000000;stroke-width:0.94298762;stroke-opacity:1;stroke-miterlimit:4;stroke-dasharray:none"
       inkscape:connector-curvature="0"
       d="m 29.197516,1024.495 c 2.127381,-2.0557 5.077989,-3.8916 8.469916,-3.1345 1.128756,0.2528 1.638911,1.076 1.948212,1.2618 0.318731,0.1914 0.961848,0.1753 1.307925,0.3553 0.873205,0.4518 1.526696,1.1053 1.655885,1.7183 0.471494,2.2358 -0.401712,2.9157 -1.889747,4.2359 -2.740322,2.4329 -6.324618,3.5144 -9.888169,3.0995 -1.256059,-0.1453 -2.842164,-1.4898 -3.136376,-2.6451 -0.581823,-2.2669 -0.179167,-3.2975 1.532354,-4.8912 z"
       id="path337" />
    <path
       style="fill:#ffe000;stroke:#000000;stroke-width:0.94298762;stroke-opacity:1;stroke-miterlimit:4;stroke-dasharray:none"
       inkscape:connector-curvature="0"
       d="m 31.69832,1045.0955 c -4.991234,0 -9.997556,-0.9137 -15.756382,-2.8751 -4.17932,-1.4221 -9.4138442,-4.8159 -11.6855013,-9.1885 L 3.909417,1032.369 c -1.1108393,-2.1142 -2.3687848,-4.5102 -2.6743129,-7.1791 -0.36682214,-3.2231 -0.1188163,-5.1259 1.1089536,-8.4792 3.2853688,-8.9716 14.3937633,-18.25162 27.2957213,-18.25162 2.86951,0 4.950684,-0.52337 8.01728,-1.5559 1.843541,-0.62242 3.593725,-0.9354 5.20152,-0.9354 1.157046,0 2.268828,0.1621 3.302343,0.48094 5.15154,1.59166 9.949462,5.75398 13.505468,11.72318 3.547519,5.9512 3.598442,13.2188 3.018505,18.2666 -0.373424,3.2675 -2.880829,5.7428 -4.892221,7.7316 -0.241405,0.2375 -0.475266,0.4677 -0.695925,0.6903 -2.274486,2.3055 -4.643271,4.0925 -7.04129,5.3118 -6.136962,3.1165 -11.694931,4.7206 -16.993578,4.9007 -0.45735,0.015 -0.909984,0.024 -1.363561,0.024 z m 11.273417,-38.5116 c -1.456915,0 -3.06471,0.3244 -4.616867,0.6357 -1.62854,0.3281 -3.313658,0.6666 -4.933711,0.6666 -4.384893,0 -8.488775,0.9891 -11.260217,2.7092 l -0.384739,0.2394 c -4.142543,2.5697 -10.403982,6.454 -11.149885,10.8888 -0.28384,1.687 0.254606,3.3995 1.64457,5.2364 4.486736,5.4938 10.672734,8.0757 19.432148,8.0757 6.989423,0 14.479573,-3.3721 21.089917,-9.4921 1.468233,-1.3589 1.922753,-3.4683 1.35413,-6.2661 -1.134413,-5.575 -5.955909,-11.4912 -9.107374,-12.423 -0.616714,-0.1819 -1.291894,-0.2706 -2.067972,-0.2706 z"
       id="path339" />
  </g>
</svg>
